<?xml version="1.0" standalone="no"?>
<!DOCTYPE svg PUBLIC "-//W3C//DTD SVG 20010904//EN"
 "http://www.w3.org/TR/2001/REC-SVG-20010904/DTD/svg10.dtd">
<svg version="1.0" xmlns="http://www.w3.org/2000/svg"
 width="640.000000pt" height="640.000000pt" viewBox="0 0 640.000000 640.000000"
 preserveAspectRatio="xMidYMid meet">

<g transform="translate(0.000000,640.000000) scale(0.100000,-0.100000)"
fill="#000000" stroke="none">
<path d="M2970 6140 c-644 -49 -1244 -301 -1720 -721 -557 -492 -905 -1163
-982 -1894 -16 -160 -13 -495 6 -645 87 -669 372 -1255 833 -1714 231 -231
477 -410 743 -542 216 -107 309 -144 510 -203 814 -239 1728 -100 2428 371
327 220 652 550 848 863 247 393 387 788 440 1240 21 174 20 500 -1 675 -100
826 -540 1561 -1227 2049 -310 220 -719 394 -1100 470 -237 47 -553 68 -778
51z m455 -260 c1151 -110 2100 -946 2351 -2072 40 -181 54 -300 61 -508 23
-737 -255 -1437 -778 -1959 -524 -525 -1224 -802 -1964 -778 -206 7 -329 22
-506 62 -711 160 -1313 594 -1699 1225 -202 329 -335 741 -371 1143 -14 158
-6 455 16 612 35 251 126 548 240 780 266 545 687 967 1230 1235 302 148 539
214 950 263 69 9 368 6 470 -3z"/>
<path d="M4180 4854 c-113 -23 -320 -62 -520 -99 -41 -8 -158 -30 -260 -50
-102 -20 -207 -40 -235 -45 -218 -38 -644 -124 -665 -135 -14 -7 -33 -22 -43
-33 -46 -51 -46 -46 -47 -973 0 -872 0 -876 -21 -903 -11 -14 -29 -31 -39 -36
-10 -5 -135 -39 -277 -76 -142 -36 -282 -77 -310 -91 -68 -34 -162 -132 -196
-204 -36 -77 -51 -181 -38 -256 46 -247 283 -407 555 -373 186 23 296 85 453
255 24 26 82 142 104 210 l24 70 5 755 c5 815 3 778 59 828 34 30 76 41 396
102 299 57 526 101 776 150 99 20 176 30 192 26 15 -3 42 -19 60 -35 l32 -29
3 -432 c3 -475 2 -484 -59 -515 -15 -8 -141 -44 -280 -79 -138 -36 -277 -77
-308 -92 -161 -79 -266 -289 -233 -466 31 -164 168 -310 336 -354 69 -19 234
-18 309 2 173 45 337 175 414 329 78 156 73 58 73 1343 l0 1149 -22 28 c-21
27 -75 56 -100 54 -7 0 -69 -12 -138 -25z"/>
</g>
</svg>
