<?xml version="1.0" standalone="no"?>
<!DOCTYPE svg PUBLIC "-//W3C//DTD SVG 20010904//EN"
 "http://www.w3.org/TR/2001/REC-SVG-20010904/DTD/svg10.dtd">
<svg version="1.0" xmlns="http://www.w3.org/2000/svg"
 width="200.000000pt" height="200.000000pt" viewBox="0 0 200.000000 200.000000"
 preserveAspectRatio="xMidYMid meet">

<g transform="translate(0.000000,200.000000) scale(0.100000,-0.100000)"
fill="#000000" stroke="none">
<path d="M351 1986 c-52 -29 -50 6 -51 -984 0 -1003 -2 -964 55 -990 37 -17
1253 -17 1290 0 57 26 55 -12 55 988 0 1000 2 962 -55 988 -40 18 -1261 16
-1294 -2z m1277 -223 l2 -163 -630 0 -630 0 0 158 c0 87 3 162 7 165 3 4 286
6 627 5 l621 -3 3 -162z m2 -463 l0 -230 -117 0 c-65 0 -124 -4 -131 -9 -8 -4
-12 -19 -10 -32 3 -24 5 -24 131 -27 l127 -3 -2 -462 -3 -462 -625 0 -625 0
-3 463 -2 462 125 0 c107 0 127 2 132 16 3 9 2 24 -4 33 -8 13 -33 17 -132 19
l-121 3 0 229 0 230 630 0 630 0 0 -230z"/>
<path d="M492 1855 c-44 -19 -67 -73 -52 -120 21 -65 21 -65 413 -65 l354 0
26 25 c34 34 40 67 23 110 -26 62 -43 65 -408 65 -257 -1 -330 -4 -356 -15z
m699 -71 c9 -11 10 -20 2 -32 -9 -15 -43 -17 -343 -17 -300 0 -334 2 -343 17
-8 12 -7 21 2 32 12 14 54 16 341 16 287 0 329 -2 341 -16z"/>
<path d="M1384 1851 c-91 -55 -50 -187 56 -180 29 2 45 -2 63 -19 43 -41 86 2
45 45 -17 18 -21 34 -19 63 3 48 -20 85 -61 99 -41 15 -48 14 -84 -8z m75 -65
c14 -16 5 -42 -16 -50 -17 -7 -43 10 -43 28 0 7 5 17 12 24 16 16 33 15 47 -2z"/>
<path d="M712 1358 c-9 -9 -12 -95 -12 -324 0 -272 2 -313 16 -325 11 -9 20
-10 32 -2 15 9 17 44 20 321 2 272 0 312 -14 326 -19 19 -26 20 -42 4z"/>
<path d="M975 1288 c-3 -7 -4 -126 -3 -263 l3 -250 25 0 25 0 0 260 0 260 -23
3 c-12 2 -24 -3 -27 -10z"/>
<path d="M846 1254 c-14 -14 -16 -45 -14 -226 3 -184 5 -212 20 -221 12 -8 21
-7 32 2 14 12 16 44 16 225 0 152 -3 215 -12 224 -16 16 -23 15 -42 -4z"/>
<path d="M1112 1258 c-9 -9 -12 -72 -12 -224 0 -181 2 -213 16 -225 11 -9 20
-10 32 -2 15 9 17 37 20 221 2 181 0 212 -14 226 -19 19 -26 20 -42 4z"/>
<path d="M1236 1115 c-13 -35 -6 -153 10 -169 38 -39 55 -7 52 96 -3 81 -4 83
-29 86 -17 2 -29 -3 -33 -13z"/>
<path d="M921 586 c-49 -18 -111 -74 -132 -120 -43 -96 -11 -226 71 -285 158
-114 370 -6 370 188 0 158 -160 271 -309 217z m156 -73 c71 -33 107 -127 78
-201 -46 -113 -176 -146 -264 -67 -113 103 -45 284 107 285 24 0 60 -7 79 -17z"/>
<path d="M964 461 c-65 -28 -84 -113 -35 -162 60 -60 156 -27 168 57 4 35 1
46 -23 73 -31 33 -76 46 -110 32z m64 -87 c4 -25 -20 -47 -42 -38 -16 6 -22
45 -9 58 14 14 48 1 51 -20z"/>
<path d="M477 493 c-4 -3 -7 -61 -7 -129 0 -104 2 -123 17 -128 18 -7 201 97
210 120 8 21 -9 37 -103 93 -84 50 -104 58 -117 44z m95 -109 l31 -16 -29 -19
c-40 -26 -44 -24 -44 16 0 40 1 40 42 19z"/>
<path d="M1341 386 c-15 -18 -4 -45 23 -52 12 -3 50 -4 85 -2 67 3 91 19 78
52 -5 13 -22 16 -90 16 -60 0 -88 -4 -96 -14z"/>
</g>
</svg>
