<?xml version="1.0" encoding="iso-8859-1"?>
<!-- Uploaded to: SVG Repo, www.svgrepo.com, Generator: SVG Repo Mixer Tools -->
<!DOCTYPE svg PUBLIC "-//W3C//DTD SVG 1.1//EN" "http://www.w3.org/Graphics/SVG/1.1/DTD/svg11.dtd">
<svg fill="#000000" version="1.1" id="Capa_1" xmlns="http://www.w3.org/2000/svg" xmlns:xlink="http://www.w3.org/1999/xlink" 
	 width="800px" height="800px" viewBox="0 0 211.683 211.684"
	 xml:space="preserve">
<g>
	<path d="M169.083,109.229c10.242-6.887,17.281-20.451,17.281-32.666c0-17.259-13.993-31.24-31.231-31.24
		c-17.244,0-31.225,13.981-31.225,31.24c0,12.215,7.039,25.779,17.274,32.666c-24.454,6.211-42.59,27.419-42.59,43.178
		c0,18.603,113.09,18.603,113.09,0C211.683,136.673,193.543,115.44,169.083,109.229z M155.122,166.357l-15.826-15.838l13.335-32.235
		h-0.134l-5.188-5.943c2.509,0.913,5.114,1.437,7.818,1.437c2.716,0,5.322-0.535,7.818-1.431l-5.176,5.938h-0.128l13.335,32.235
		L155.122,166.357z M12.958,91.391c-0.703,0.685-1.446,1.321-1.833,2.226c-2.146,5.082,2.201,11.764,9.703,14.937
		c7.499,3.153,15.326,1.607,17.47-3.472c0.523-1.242,0.642-2.588,0.435-3.957l54.909,20.739V51.09L0,86.489L12.958,91.391z
		 M14.297,94.956c0.393-0.935,1.075-1.72,1.927-2.344l18.874,7.146c0.414,1.373,0.563,2.736,0.027,3.991
		c-1.647,3.897-7.639,5.072-13.393,2.643C15.987,103.962,12.653,98.854,14.297,94.956z M115.067,110.1L97.195,99.776l2.582-4.469
		l17.872,10.324L115.067,110.1z M117.849,89.065H97.195v-5.164h20.654V89.065z M99.771,77.654l-2.576-4.47l17.902-10.303
		l2.576,4.479L99.771,77.654z"/>
</g>
</svg>